<svg width="225" height="53" viewBox="0 0 225 53" fill="none" xmlns="http://www.w3.org/2000/svg">
<path d="M74.4048 34.9985C74.2181 34.5505 73.9661 33.9812 73.6488 33.2905C73.3501 32.5998 73.0234 31.8532 72.6688 31.0505C72.3141 30.2478 71.9314 29.4265 71.5208 28.5865C71.1288 27.7278 70.7554 26.9252 70.4008 26.1785C70.0461 25.4132 69.7101 24.7318 69.3928 24.1345C69.0941 23.5372 68.8514 23.0798 68.6648 22.7625C68.4594 24.9652 68.2914 27.3545 68.1608 29.9305C68.0301 32.4878 67.9181 35.0732 67.8248 37.6865H65.1648C65.2394 36.0065 65.3234 34.3172 65.4168 32.6185C65.5101 30.9012 65.6128 29.2212 65.7248 27.5785C65.8554 25.9172 65.9861 24.3025 66.1168 22.7345C66.2661 21.1665 66.4248 19.6825 66.5928 18.2825H68.9728C69.4768 19.1038 70.0181 20.0745 70.5968 21.1945C71.1754 22.3145 71.7541 23.4905 72.3328 24.7225C72.9114 25.9358 73.4714 27.1585 74.0128 28.3905C74.5541 29.6038 75.0488 30.7145 75.4968 31.7225C75.9448 30.7145 76.4394 29.6038 76.9808 28.3905C77.5221 27.1585 78.0821 25.9358 78.6608 24.7225C79.2394 23.4905 79.8181 22.3145 80.3968 21.1945C80.9754 20.0745 81.5168 19.1038 82.0208 18.2825H84.4008C85.0354 24.5358 85.5114 31.0038 85.8288 37.6865H83.1688C83.0754 35.0732 82.9634 32.4878 82.8328 29.9305C82.7021 27.3545 82.5341 24.9652 82.3288 22.7625C82.1421 23.0798 81.8901 23.5372 81.5728 24.1345C81.2741 24.7318 80.9474 25.4132 80.5928 26.1785C80.2381 26.9252 79.8554 27.7278 79.4448 28.5865C79.0528 29.4265 78.6794 30.2478 78.3248 31.0505C77.9701 31.8532 77.6341 32.5998 77.3168 33.2905C77.0181 33.9812 76.7754 34.5505 76.5888 34.9985H74.4048ZM92.5234 37.6865H89.9194V23.1265H92.5234V37.6865ZM91.2074 20.4945C90.7407 20.4945 90.3394 20.3452 90.0034 20.0465C89.686 19.7292 89.5274 19.3092 89.5274 18.7865C89.5274 18.2638 89.686 17.8532 90.0034 17.5545C90.3394 17.2372 90.7407 17.0785 91.2074 17.0785C91.674 17.0785 92.066 17.2372 92.3834 17.5545C92.7194 17.8532 92.8874 18.2638 92.8874 18.7865C92.8874 19.3092 92.7194 19.7292 92.3834 20.0465C92.066 20.3452 91.674 20.4945 91.2074 20.4945ZM103.329 38.0225C102.153 38.0225 101.117 37.8358 100.221 37.4625C99.3441 37.0892 98.5974 36.5665 97.9814 35.8945C97.3841 35.2225 96.9361 34.4292 96.6374 33.5145C96.3387 32.5812 96.1894 31.5545 96.1894 30.4345C96.1894 29.3145 96.3481 28.2878 96.6654 27.3545C97.0014 26.4212 97.4681 25.6185 98.0654 24.9465C98.6627 24.2558 99.3907 23.7238 100.249 23.3505C101.127 22.9585 102.097 22.7625 103.161 22.7625C103.815 22.7625 104.468 22.8185 105.121 22.9305C105.775 23.0425 106.4 23.2198 106.997 23.4625L106.409 25.6745C106.017 25.4878 105.56 25.3385 105.037 25.2265C104.533 25.1145 103.992 25.0585 103.413 25.0585C101.957 25.0585 100.837 25.5158 100.053 26.4305C99.2881 27.3452 98.9054 28.6798 98.9054 30.4345C98.9054 31.2185 98.9894 31.9372 99.1574 32.5905C99.3441 33.2438 99.6241 33.8038 99.9974 34.2705C100.389 34.7372 100.884 35.1012 101.481 35.3625C102.079 35.6052 102.807 35.7265 103.665 35.7265C104.356 35.7265 104.981 35.6612 105.541 35.5305C106.101 35.3998 106.54 35.2598 106.857 35.1105L107.221 37.2945C107.072 37.3878 106.857 37.4812 106.577 37.5745C106.297 37.6492 105.98 37.7145 105.625 37.7705C105.271 37.8452 104.888 37.9012 104.477 37.9385C104.085 37.9945 103.703 38.0225 103.329 38.0225ZM115.393 22.8185C115.617 22.8185 115.869 22.8372 116.149 22.8745C116.448 22.8932 116.737 22.9305 117.017 22.9865C117.297 23.0238 117.549 23.0705 117.773 23.1265C118.016 23.1638 118.193 23.2012 118.305 23.2385L117.857 25.5065C117.652 25.4318 117.306 25.3478 116.821 25.2545C116.354 25.1425 115.748 25.0865 115.001 25.0865C114.516 25.0865 114.03 25.1425 113.545 25.2545C113.078 25.3478 112.77 25.4132 112.621 25.4505V37.6865H110.017V23.7425C110.633 23.5185 111.398 23.3132 112.313 23.1265C113.228 22.9212 114.254 22.8185 115.393 22.8185ZM133.67 30.4065C133.67 31.5638 133.502 32.6092 133.166 33.5425C132.83 34.4758 132.354 35.2785 131.738 35.9505C131.14 36.6225 130.422 37.1452 129.582 37.5185C128.742 37.8732 127.827 38.0505 126.838 38.0505C125.848 38.0505 124.934 37.8732 124.094 37.5185C123.254 37.1452 122.526 36.6225 121.91 35.9505C121.312 35.2785 120.846 34.4758 120.51 33.5425C120.174 32.6092 120.006 31.5638 120.006 30.4065C120.006 29.2678 120.174 28.2318 120.51 27.2985C120.846 26.3465 121.312 25.5345 121.91 24.8625C122.526 24.1905 123.254 23.6772 124.094 23.3225C124.934 22.9492 125.848 22.7625 126.838 22.7625C127.827 22.7625 128.742 22.9492 129.582 23.3225C130.422 23.6772 131.14 24.1905 131.738 24.8625C132.354 25.5345 132.83 26.3465 133.166 27.2985C133.502 28.2318 133.67 29.2678 133.67 30.4065ZM130.954 30.4065C130.954 28.7638 130.58 27.4665 129.834 26.5145C129.106 25.5438 128.107 25.0585 126.838 25.0585C125.568 25.0585 124.56 25.5438 123.814 26.5145C123.086 27.4665 122.722 28.7638 122.722 30.4065C122.722 32.0492 123.086 33.3558 123.814 34.3265C124.56 35.2785 125.568 35.7545 126.838 35.7545C128.107 35.7545 129.106 35.2785 129.834 34.3265C130.58 33.3558 130.954 32.0492 130.954 30.4065ZM136.521 30.4345C136.521 29.1465 136.708 28.0265 137.081 27.0745C137.455 26.1038 137.949 25.3012 138.565 24.6665C139.181 24.0318 139.891 23.5558 140.693 23.2385C141.496 22.9212 142.317 22.7625 143.157 22.7625C145.117 22.7625 146.62 23.3785 147.665 24.6105C148.711 25.8238 149.233 27.6812 149.233 30.1825C149.233 30.2945 149.233 30.4438 149.233 30.6305C149.233 30.7985 149.224 30.9572 149.205 31.1065H139.237C139.349 32.6185 139.788 33.7665 140.553 34.5505C141.319 35.3345 142.513 35.7265 144.137 35.7265C145.052 35.7265 145.817 35.6518 146.433 35.5025C147.068 35.3345 147.544 35.1758 147.861 35.0265L148.225 37.2105C147.908 37.3785 147.348 37.5558 146.545 37.7425C145.761 37.9292 144.865 38.0225 143.857 38.0225C142.588 38.0225 141.487 37.8358 140.553 37.4625C139.639 37.0705 138.883 36.5385 138.285 35.8665C137.688 35.1945 137.24 34.4012 136.941 33.4865C136.661 32.5532 136.521 31.5358 136.521 30.4345ZM146.517 29.0065C146.536 27.8305 146.237 26.8692 145.621 26.1225C145.024 25.3572 144.193 24.9745 143.129 24.9745C142.532 24.9745 142 25.0958 141.533 25.3385C141.085 25.5625 140.703 25.8612 140.385 26.2345C140.068 26.6078 139.816 27.0372 139.629 27.5225C139.461 28.0078 139.349 28.5025 139.293 29.0065H146.517ZM157.342 37.9665C155.737 37.9292 154.598 37.5838 153.926 36.9305C153.254 36.2772 152.918 35.2598 152.918 33.8785V16.4065L155.522 15.9585V33.4585C155.522 33.8878 155.559 34.2425 155.634 34.5225C155.709 34.8025 155.83 35.0265 155.998 35.1945C156.166 35.3625 156.39 35.4932 156.67 35.5865C156.95 35.6612 157.295 35.7265 157.706 35.7825L157.342 37.9665ZM163.71 36.1745C163.71 36.6785 163.542 37.1172 163.206 37.4905C162.87 37.8638 162.413 38.0505 161.834 38.0505C161.256 38.0505 160.798 37.8638 160.462 37.4905C160.126 37.1172 159.958 36.6785 159.958 36.1745C159.958 35.6705 160.126 35.2318 160.462 34.8585C160.798 34.4852 161.256 34.2985 161.834 34.2985C162.413 34.2985 162.87 34.4852 163.206 34.8585C163.542 35.2318 163.71 35.6705 163.71 36.1745ZM175.213 38.1065C173.85 38.1065 172.609 37.8825 171.489 37.4345C170.369 36.9865 169.407 36.3332 168.605 35.4745C167.802 34.6158 167.177 33.5612 166.729 32.3105C166.299 31.0412 166.085 29.5945 166.085 27.9705C166.085 26.3465 166.327 24.9092 166.813 23.6585C167.317 22.3892 167.989 21.3252 168.829 20.4665C169.669 19.6078 170.649 18.9545 171.769 18.5065C172.889 18.0585 174.083 17.8345 175.353 17.8345C176.155 17.8345 176.874 17.8905 177.509 18.0025C178.162 18.1145 178.722 18.2452 179.189 18.3945C179.674 18.5438 180.066 18.6932 180.365 18.8425C180.663 18.9918 180.869 19.1038 180.981 19.1785L180.197 21.4185C180.029 21.3065 179.786 21.1852 179.469 21.0545C179.151 20.9238 178.787 20.7932 178.377 20.6625C177.985 20.5318 177.546 20.4292 177.061 20.3545C176.594 20.2612 176.118 20.2145 175.633 20.2145C174.606 20.2145 173.682 20.3918 172.861 20.7465C172.039 21.1012 171.339 21.6145 170.761 22.2865C170.182 22.9585 169.734 23.7798 169.417 24.7505C169.118 25.7025 168.969 26.7758 168.969 27.9705C168.969 29.1278 169.099 30.1825 169.361 31.1345C169.641 32.0865 170.051 32.9078 170.593 33.5985C171.134 34.2705 171.806 34.7932 172.609 35.1665C173.43 35.5398 174.382 35.7265 175.465 35.7265C176.715 35.7265 177.751 35.5958 178.573 35.3345C179.394 35.0732 180.01 34.8398 180.421 34.6345L181.121 36.8745C180.99 36.9678 180.757 37.0892 180.421 37.2385C180.085 37.3692 179.665 37.4998 179.161 37.6305C178.657 37.7612 178.069 37.8732 177.397 37.9665C176.725 38.0598 175.997 38.1065 175.213 38.1065ZM193.724 29.5665C194.023 29.9398 194.396 30.4345 194.844 31.0505C195.311 31.6478 195.787 32.3198 196.272 33.0665C196.757 33.7945 197.233 34.5598 197.7 35.3625C198.185 36.1652 198.596 36.9398 198.932 37.6865H195.964C195.591 36.9772 195.18 36.2585 194.732 35.5305C194.303 34.8025 193.864 34.1118 193.416 33.4585C192.968 32.7865 192.52 32.1612 192.072 31.5825C191.643 31.0038 191.251 30.4998 190.896 30.0705C190.653 30.0892 190.401 30.0985 190.14 30.0985C189.897 30.0985 189.645 30.0985 189.384 30.0985H186.948V37.6865H184.232V18.5625C184.997 18.3758 185.847 18.2545 186.78 18.1985C187.732 18.1238 188.6 18.0865 189.384 18.0865C192.109 18.0865 194.181 18.5998 195.6 19.6265C197.037 20.6532 197.756 22.1838 197.756 24.2185C197.756 25.5065 197.411 26.6078 196.72 27.5225C196.048 28.4372 195.049 29.1185 193.724 29.5665ZM189.608 20.4665C188.451 20.4665 187.564 20.4945 186.948 20.5505V27.8585H188.88C189.813 27.8585 190.653 27.8118 191.4 27.7185C192.147 27.6252 192.772 27.4478 193.276 27.1865C193.799 26.9252 194.2 26.5612 194.48 26.0945C194.76 25.6092 194.9 24.9745 194.9 24.1905C194.9 23.4625 194.76 22.8558 194.48 22.3705C194.2 21.8852 193.817 21.5025 193.332 21.2225C192.865 20.9425 192.305 20.7465 191.652 20.6345C191.017 20.5225 190.336 20.4665 189.608 20.4665ZM210.549 34.9985C210.363 34.5505 210.111 33.9812 209.793 33.2905C209.495 32.5998 209.168 31.8532 208.813 31.0505C208.459 30.2478 208.076 29.4265 207.665 28.5865C207.273 27.7278 206.9 26.9252 206.545 26.1785C206.191 25.4132 205.855 24.7318 205.537 24.1345C205.239 23.5372 204.996 23.0798 204.809 22.7625C204.604 24.9652 204.436 27.3545 204.305 29.9305C204.175 32.4878 204.063 35.0732 203.969 37.6865H201.309C201.384 36.0065 201.468 34.3172 201.561 32.6185C201.655 30.9012 201.757 29.2212 201.869 27.5785C202 25.9172 202.131 24.3025 202.261 22.7345C202.411 21.1665 202.569 19.6825 202.737 18.2825H205.117C205.621 19.1038 206.163 20.0745 206.741 21.1945C207.32 22.3145 207.899 23.4905 208.477 24.7225C209.056 25.9358 209.616 27.1585 210.157 28.3905C210.699 29.6038 211.193 30.7145 211.641 31.7225C212.089 30.7145 212.584 29.6038 213.125 28.3905C213.667 27.1585 214.227 25.9358 214.805 24.7225C215.384 23.4905 215.963 22.3145 216.541 21.1945C217.12 20.0745 217.661 19.1038 218.165 18.2825H220.545C221.18 24.5358 221.656 31.0038 221.973 37.6865H219.313C219.22 35.0732 219.108 32.4878 218.977 29.9305C218.847 27.3545 218.679 24.9652 218.473 22.7625C218.287 23.0798 218.035 23.5372 217.717 24.1345C217.419 24.7318 217.092 25.4132 216.737 26.1785C216.383 26.9252 216 27.7278 215.589 28.5865C215.197 29.4265 214.824 30.2478 214.469 31.0505C214.115 31.8532 213.779 32.5998 213.461 33.2905C213.163 33.9812 212.92 34.5505 212.733 34.9985H210.549Z" fill="white"/>
<g clip-path="url(#clip0_10_23)">
<path fill-rule="evenodd" clip-rule="evenodd" d="M42.5019 40.5743C43.5953 35.6955 37.4066 27.9482 27.7176 22.4547C17.1488 16.4624 6.41741 15.4209 3.7483 20.1284C2.73223 21.9205 3.03099 24.2873 4.3738 26.8622C0.550243 22.3812 -1.01409 17.9729 0.678134 14.9883C3.66726 9.71632 15.6854 10.8827 27.5213 17.5935C39.3573 24.3043 46.529 34.0183 43.5399 39.2902C43.2669 39.7718 42.9186 40.1996 42.5019 40.5743Z" fill="#97C6F0"/>
<path fill-rule="evenodd" clip-rule="evenodd" d="M50.2839 12.4257C51.3772 17.3045 45.1885 25.0518 35.4995 30.5453C24.9307 36.5377 14.1993 37.5792 11.5302 32.8716C10.5142 31.0796 10.8129 28.7127 12.1557 26.1378C8.33217 30.6189 6.76783 35.0271 8.46006 38.0117C11.4492 43.2837 23.4673 42.1173 35.3032 35.4065C47.1392 28.6957 54.311 18.9818 51.3218 13.7098C51.0488 13.2283 50.7005 12.8005 50.2839 12.4257Z" fill="#E0F1FF"/>
</g>
<defs>
<clipPath id="clip0_10_23">
<rect width="52" height="52" fill="white" transform="translate(0 0.5)"/>
</clipPath>
</defs>
</svg>
