<svg width="225" height="52" viewBox="0 0 225 52" fill="none" xmlns="http://www.w3.org/2000/svg">
<path d="M74.4048 34.4985C74.2181 34.0505 73.9661 33.4812 73.6488 32.7905C73.3501 32.0999 73.0234 31.3532 72.6688 30.5505C72.3141 29.7479 71.9314 28.9265 71.5208 28.0865C71.1288 27.2279 70.7554 26.4252 70.4008 25.6785C70.0461 24.9132 69.7101 24.2319 69.3928 23.6345C69.0941 23.0372 68.8514 22.5799 68.6648 22.2625C68.4594 24.4652 68.2914 26.8545 68.1608 29.4305C68.0301 31.9879 67.9181 34.5732 67.8248 37.1865H65.1648C65.2394 35.5065 65.3234 33.8172 65.4168 32.1185C65.5101 30.4012 65.6128 28.7212 65.7248 27.0785C65.8554 25.4172 65.9861 23.8025 66.1168 22.2345C66.2661 20.6665 66.4248 19.1825 66.5928 17.7825H68.9728C69.4768 18.6039 70.0181 19.5745 70.5968 20.6945C71.1754 21.8145 71.7541 22.9905 72.3328 24.2225C72.9114 25.4359 73.4714 26.6585 74.0128 27.8905C74.5541 29.1039 75.0488 30.2145 75.4968 31.2225C75.9448 30.2145 76.4394 29.1039 76.9808 27.8905C77.5221 26.6585 78.0821 25.4359 78.6608 24.2225C79.2394 22.9905 79.8181 21.8145 80.3968 20.6945C80.9754 19.5745 81.5168 18.6039 82.0208 17.7825H84.4008C85.0354 24.0359 85.5114 30.5039 85.8288 37.1865H83.1688C83.0754 34.5732 82.9634 31.9879 82.8328 29.4305C82.7021 26.8545 82.5341 24.4652 82.3288 22.2625C82.1421 22.5799 81.8901 23.0372 81.5728 23.6345C81.2741 24.2319 80.9474 24.9132 80.5928 25.6785C80.2381 26.4252 79.8554 27.2279 79.4448 28.0865C79.0528 28.9265 78.6794 29.7479 78.3248 30.5505C77.9701 31.3532 77.6341 32.0999 77.3168 32.7905C77.0181 33.4812 76.7754 34.0505 76.5888 34.4985H74.4048ZM92.5234 37.1865H89.9194V22.6265H92.5234V37.1865ZM91.2074 19.9945C90.7407 19.9945 90.3394 19.8452 90.0034 19.5465C89.686 19.2292 89.5274 18.8092 89.5274 18.2865C89.5274 17.7639 89.686 17.3532 90.0034 17.0545C90.3394 16.7372 90.7407 16.5785 91.2074 16.5785C91.674 16.5785 92.066 16.7372 92.3834 17.0545C92.7194 17.3532 92.8874 17.7639 92.8874 18.2865C92.8874 18.8092 92.7194 19.2292 92.3834 19.5465C92.066 19.8452 91.674 19.9945 91.2074 19.9945ZM103.329 37.5225C102.153 37.5225 101.117 37.3359 100.221 36.9625C99.3441 36.5892 98.5974 36.0665 97.9814 35.3945C97.3841 34.7225 96.9361 33.9292 96.6374 33.0145C96.3387 32.0812 96.1894 31.0545 96.1894 29.9345C96.1894 28.8145 96.3481 27.7879 96.6654 26.8545C97.0014 25.9212 97.4681 25.1185 98.0654 24.4465C98.6627 23.7559 99.3907 23.2239 100.249 22.8505C101.127 22.4585 102.097 22.2625 103.161 22.2625C103.815 22.2625 104.468 22.3185 105.121 22.4305C105.775 22.5425 106.4 22.7199 106.997 22.9625L106.409 25.1745C106.017 24.9879 105.56 24.8385 105.037 24.7265C104.533 24.6145 103.992 24.5585 103.413 24.5585C101.957 24.5585 100.837 25.0159 100.053 25.9305C99.2881 26.8452 98.9054 28.1799 98.9054 29.9345C98.9054 30.7185 98.9894 31.4372 99.1574 32.0905C99.3441 32.7439 99.6241 33.3039 99.9974 33.7705C100.389 34.2372 100.884 34.6012 101.481 34.8625C102.079 35.1052 102.807 35.2265 103.665 35.2265C104.356 35.2265 104.981 35.1612 105.541 35.0305C106.101 34.8999 106.54 34.7599 106.857 34.6105L107.221 36.7945C107.072 36.8879 106.857 36.9812 106.577 37.0745C106.297 37.1492 105.98 37.2145 105.625 37.2705C105.271 37.3452 104.888 37.4012 104.477 37.4385C104.085 37.4945 103.703 37.5225 103.329 37.5225ZM115.393 22.3185C115.617 22.3185 115.869 22.3372 116.149 22.3745C116.448 22.3932 116.737 22.4305 117.017 22.4865C117.297 22.5239 117.549 22.5705 117.773 22.6265C118.016 22.6639 118.193 22.7012 118.305 22.7385L117.857 25.0065C117.652 24.9319 117.306 24.8479 116.821 24.7545C116.354 24.6425 115.748 24.5865 115.001 24.5865C114.516 24.5865 114.03 24.6425 113.545 24.7545C113.078 24.8479 112.77 24.9132 112.621 24.9505V37.1865H110.017V23.2425C110.633 23.0185 111.398 22.8132 112.313 22.6265C113.228 22.4212 114.254 22.3185 115.393 22.3185ZM133.67 29.9065C133.67 31.0639 133.502 32.1092 133.166 33.0425C132.83 33.9759 132.354 34.7785 131.738 35.4505C131.14 36.1225 130.422 36.6452 129.582 37.0185C128.742 37.3732 127.827 37.5505 126.838 37.5505C125.848 37.5505 124.934 37.3732 124.094 37.0185C123.254 36.6452 122.526 36.1225 121.91 35.4505C121.312 34.7785 120.846 33.9759 120.51 33.0425C120.174 32.1092 120.006 31.0639 120.006 29.9065C120.006 28.7679 120.174 27.7319 120.51 26.7985C120.846 25.8465 121.312 25.0345 121.91 24.3625C122.526 23.6905 123.254 23.1772 124.094 22.8225C124.934 22.4492 125.848 22.2625 126.838 22.2625C127.827 22.2625 128.742 22.4492 129.582 22.8225C130.422 23.1772 131.14 23.6905 131.738 24.3625C132.354 25.0345 132.83 25.8465 133.166 26.7985C133.502 27.7319 133.67 28.7679 133.67 29.9065ZM130.954 29.9065C130.954 28.2639 130.58 26.9665 129.834 26.0145C129.106 25.0439 128.107 24.5585 126.838 24.5585C125.568 24.5585 124.56 25.0439 123.814 26.0145C123.086 26.9665 122.722 28.2639 122.722 29.9065C122.722 31.5492 123.086 32.8559 123.814 33.8265C124.56 34.7785 125.568 35.2545 126.838 35.2545C128.107 35.2545 129.106 34.7785 129.834 33.8265C130.58 32.8559 130.954 31.5492 130.954 29.9065ZM136.521 29.9345C136.521 28.6465 136.708 27.5265 137.081 26.5745C137.455 25.6039 137.949 24.8012 138.565 24.1665C139.181 23.5319 139.891 23.0559 140.693 22.7385C141.496 22.4212 142.317 22.2625 143.157 22.2625C145.117 22.2625 146.62 22.8785 147.665 24.1105C148.711 25.3239 149.233 27.1812 149.233 29.6825C149.233 29.7945 149.233 29.9439 149.233 30.1305C149.233 30.2985 149.224 30.4572 149.205 30.6065H139.237C139.349 32.1185 139.788 33.2665 140.553 34.0505C141.319 34.8345 142.513 35.2265 144.137 35.2265C145.052 35.2265 145.817 35.1519 146.433 35.0025C147.068 34.8345 147.544 34.6759 147.861 34.5265L148.225 36.7105C147.908 36.8785 147.348 37.0559 146.545 37.2425C145.761 37.4292 144.865 37.5225 143.857 37.5225C142.588 37.5225 141.487 37.3359 140.553 36.9625C139.639 36.5705 138.883 36.0385 138.285 35.3665C137.688 34.6945 137.24 33.9012 136.941 32.9865C136.661 32.0532 136.521 31.0359 136.521 29.9345ZM146.517 28.5065C146.536 27.3305 146.237 26.3692 145.621 25.6225C145.024 24.8572 144.193 24.4745 143.129 24.4745C142.532 24.4745 142 24.5959 141.533 24.8385C141.085 25.0625 140.703 25.3612 140.385 25.7345C140.068 26.1079 139.816 26.5372 139.629 27.0225C139.461 27.5079 139.349 28.0025 139.293 28.5065H146.517ZM157.342 37.4665C155.737 37.4292 154.598 37.0839 153.926 36.4305C153.254 35.7772 152.918 34.7599 152.918 33.3785V15.9065L155.522 15.4585V32.9585C155.522 33.3879 155.559 33.7425 155.634 34.0225C155.709 34.3025 155.83 34.5265 155.998 34.6945C156.166 34.8625 156.39 34.9932 156.67 35.0865C156.95 35.1612 157.295 35.2265 157.706 35.2825L157.342 37.4665ZM163.71 35.6745C163.71 36.1785 163.542 36.6172 163.206 36.9905C162.87 37.3639 162.413 37.5505 161.834 37.5505C161.256 37.5505 160.798 37.3639 160.462 36.9905C160.126 36.6172 159.958 36.1785 159.958 35.6745C159.958 35.1705 160.126 34.7319 160.462 34.3585C160.798 33.9852 161.256 33.7985 161.834 33.7985C162.413 33.7985 162.87 33.9852 163.206 34.3585C163.542 34.7319 163.71 35.1705 163.71 35.6745ZM175.213 37.6065C173.85 37.6065 172.609 37.3825 171.489 36.9345C170.369 36.4865 169.407 35.8332 168.605 34.9745C167.802 34.1159 167.177 33.0612 166.729 31.8105C166.299 30.5412 166.085 29.0945 166.085 27.4705C166.085 25.8465 166.327 24.4092 166.813 23.1585C167.317 21.8892 167.989 20.8252 168.829 19.9665C169.669 19.1079 170.649 18.4545 171.769 18.0065C172.889 17.5585 174.083 17.3345 175.353 17.3345C176.155 17.3345 176.874 17.3905 177.509 17.5025C178.162 17.6145 178.722 17.7452 179.189 17.8945C179.674 18.0439 180.066 18.1932 180.365 18.3425C180.663 18.4919 180.869 18.6039 180.981 18.6785L180.197 20.9185C180.029 20.8065 179.786 20.6852 179.469 20.5545C179.151 20.4239 178.787 20.2932 178.377 20.1625C177.985 20.0319 177.546 19.9292 177.061 19.8545C176.594 19.7612 176.118 19.7145 175.633 19.7145C174.606 19.7145 173.682 19.8919 172.861 20.2465C172.039 20.6012 171.339 21.1145 170.761 21.7865C170.182 22.4585 169.734 23.2799 169.417 24.2505C169.118 25.2025 168.969 26.2759 168.969 27.4705C168.969 28.6279 169.099 29.6825 169.361 30.6345C169.641 31.5865 170.051 32.4079 170.593 33.0985C171.134 33.7705 171.806 34.2932 172.609 34.6665C173.43 35.0399 174.382 35.2265 175.465 35.2265C176.715 35.2265 177.751 35.0959 178.573 34.8345C179.394 34.5732 180.01 34.3399 180.421 34.1345L181.121 36.3745C180.99 36.4679 180.757 36.5892 180.421 36.7385C180.085 36.8692 179.665 36.9999 179.161 37.1305C178.657 37.2612 178.069 37.3732 177.397 37.4665C176.725 37.5599 175.997 37.6065 175.213 37.6065ZM193.724 29.0665C194.023 29.4399 194.396 29.9345 194.844 30.5505C195.311 31.1479 195.787 31.8199 196.272 32.5665C196.757 33.2945 197.233 34.0599 197.7 34.8625C198.185 35.6652 198.596 36.4399 198.932 37.1865H195.964C195.591 36.4772 195.18 35.7585 194.732 35.0305C194.303 34.3025 193.864 33.6119 193.416 32.9585C192.968 32.2865 192.52 31.6612 192.072 31.0825C191.643 30.5039 191.251 29.9999 190.896 29.5705C190.653 29.5892 190.401 29.5985 190.14 29.5985C189.897 29.5985 189.645 29.5985 189.384 29.5985H186.948V37.1865H184.232V18.0625C184.997 17.8759 185.847 17.7545 186.78 17.6985C187.732 17.6239 188.6 17.5865 189.384 17.5865C192.109 17.5865 194.181 18.0999 195.6 19.1265C197.037 20.1532 197.756 21.6839 197.756 23.7185C197.756 25.0065 197.411 26.1079 196.72 27.0225C196.048 27.9372 195.049 28.6185 193.724 29.0665ZM189.608 19.9665C188.451 19.9665 187.564 19.9945 186.948 20.0505V27.3585H188.88C189.813 27.3585 190.653 27.3119 191.4 27.2185C192.147 27.1252 192.772 26.9479 193.276 26.6865C193.799 26.4252 194.2 26.0612 194.48 25.5945C194.76 25.1092 194.9 24.4745 194.9 23.6905C194.9 22.9625 194.76 22.3559 194.48 21.8705C194.2 21.3852 193.817 21.0025 193.332 20.7225C192.865 20.4425 192.305 20.2465 191.652 20.1345C191.017 20.0225 190.336 19.9665 189.608 19.9665ZM210.549 34.4985C210.363 34.0505 210.111 33.4812 209.793 32.7905C209.495 32.0999 209.168 31.3532 208.813 30.5505C208.459 29.7479 208.076 28.9265 207.665 28.0865C207.273 27.2279 206.9 26.4252 206.545 25.6785C206.191 24.9132 205.855 24.2319 205.537 23.6345C205.239 23.0372 204.996 22.5799 204.809 22.2625C204.604 24.4652 204.436 26.8545 204.305 29.4305C204.175 31.9879 204.063 34.5732 203.969 37.1865H201.309C201.384 35.5065 201.468 33.8172 201.561 32.1185C201.655 30.4012 201.757 28.7212 201.869 27.0785C202 25.4172 202.131 23.8025 202.261 22.2345C202.411 20.6665 202.569 19.1825 202.737 17.7825H205.117C205.621 18.6039 206.163 19.5745 206.741 20.6945C207.32 21.8145 207.899 22.9905 208.477 24.2225C209.056 25.4359 209.616 26.6585 210.157 27.8905C210.699 29.1039 211.193 30.2145 211.641 31.2225C212.089 30.2145 212.584 29.1039 213.125 27.8905C213.667 26.6585 214.227 25.4359 214.805 24.2225C215.384 22.9905 215.963 21.8145 216.541 20.6945C217.12 19.5745 217.661 18.6039 218.165 17.7825H220.545C221.18 24.0359 221.656 30.5039 221.973 37.1865H219.313C219.22 34.5732 219.108 31.9879 218.977 29.4305C218.847 26.8545 218.679 24.4652 218.473 22.2625C218.287 22.5799 218.035 23.0372 217.717 23.6345C217.419 24.2319 217.092 24.9132 216.737 25.6785C216.383 26.4252 216 27.2279 215.589 28.0865C215.197 28.9265 214.824 29.7479 214.469 30.5505C214.115 31.3532 213.779 32.0999 213.461 32.7905C213.163 33.4812 212.92 34.0505 212.733 34.4985H210.549Z" fill="#155897"/>
<g clip-path="url(#clip0_101_5)">
<path fill-rule="evenodd" clip-rule="evenodd" d="M42.5019 40.0743C43.5953 35.1955 37.4066 27.4482 27.7176 21.9547C17.1488 15.9624 6.41741 14.9209 3.7483 19.6284C2.73223 21.4205 3.03099 23.7873 4.3738 26.3622C0.550243 21.8812 -1.01409 17.4729 0.678134 14.4883C3.66726 9.21632 15.6854 10.3827 27.5213 17.0935C39.3573 23.8043 46.529 33.5183 43.5399 38.7902C43.2669 39.2718 42.9186 39.6996 42.5019 40.0743Z" fill="#477CAB"/>
<path fill-rule="evenodd" clip-rule="evenodd" d="M50.2839 11.9257C51.3773 16.8045 45.1886 24.5519 35.4995 30.0454C24.9308 36.0377 14.1994 37.0792 11.5303 32.3717C10.5142 30.5796 10.8129 28.2127 12.1558 25.6378C8.3322 30.1189 6.76786 34.5272 8.46009 37.5118C11.4492 42.7837 23.4673 41.6174 35.3033 34.9066C47.1392 28.1958 54.311 18.4818 51.3219 13.2098C51.0489 12.7283 50.7005 12.3005 50.2839 11.9257Z" fill="#B2D1ED"/>
</g>
<defs>
<clipPath id="clip0_101_5">
<rect width="52" height="52" fill="white"/>
</clipPath>
</defs>
</svg>
